HIERARCHY
ROOT joint_Root
{
  OFFSET 0 0 0
  CHANNELS 6 Xposition Yposition Zposition Zrotation Xrotation Yrotation
  JOINT Hips
  {
    OFFSET 0.847027 93.984 -452.225
    CHANNELS 6 Xposition Yposition Zposition Zrotation Xrotation Yrotation
    JOINT Spine
    {
      OFFSET 15.7357 0 0
      CHANNELS 6 Xposition Yposition Zposition Zrotation Xrotation Yrotation
      JOINT Chest
      {
        OFFSET 8.98455 -0.406207 0
        CHANNELS 6 Xposition Yposition Zposition Zrotation Xrotation Yrotation
        JOINT Neck
        {
          OFFSET 16.3773 0 0
          CHANNELS 6 Xposition Yposition Zposition Zrotation Xrotation Yrotation
          JOINT Head
          {
            OFFSET 6.45672 0 0
            CHANNELS 6 Xposition Yposition Zposition Zrotation Xrotation Yrotation
            End Site
            {
              OFFSET 0 0 0
            }
          }
        }
        JOINT Shoulder_L
        {
          OFFSET 12.9942 -0.242716 4.98039
          CHANNELS 6 Xposition Yposition Zposition Zrotation Xrotation Yrotation
          JOINT UpperArm_L
          {
            OFFSET 5.34809 0 0
            CHANNELS 6 Xposition Yposition Zposition Zrotation Xrotation Yrotation
            JOINT LowerArm_L
            {
              OFFSET 24.3286 1.87007e-05 0
              CHANNELS 6 Xposition Yposition Zposition Zrotation Xrotation Yrotation
              JOINT Hand_L
              {
                OFFSET 22.2916 0 0
                CHANNELS 6 Xposition Yposition Zposition Zrotation Xrotation Yrotation
                End Site
                {
                  OFFSET 0 0 0
                }
              }
            }
          }
        }
        JOINT Shoulder_R
        {
          OFFSET 12.9945 -0.242716 -4.98039
          CHANNELS 6 Xposition Yposition Zposition Zrotation Xrotation Yrotation
          JOINT UpperArm_R
          {
            OFFSET -5.34813 0 0
            CHANNELS 6 Xposition Yposition Zposition Zrotation Xrotation Yrotation
            JOINT LowerArm_R
            {
              OFFSET -24.3289 0.000322201 0
              CHANNELS 6 Xposition Yposition Zposition Zrotation Xrotation Yrotation
              JOINT Hand_R
              {
                OFFSET -22.2915 -0.000108084 0
                CHANNELS 6 Xposition Yposition Zposition Zrotation Xrotation Yrotation
                End Site
                {
                  OFFSET 0 0 0
                }
              }
            }
          }
        }
      }
    }
    JOINT UpperLeg_L
    {
      OFFSET -2.19248 -6.46944 0
      CHANNELS 6 Xposition Yposition Zposition Zrotation Xrotation Yrotation
      JOINT LowerLeg_L
      {
        OFFSET 39.0811 0 -1.23785e-05
        CHANNELS 6 Xposition Yposition Zposition Zrotation Xrotation Yrotation
        JOINT Foot_L
        {
          OFFSET 40.9854 0 -1.26872e-05
          CHANNELS 6 Xposition Yposition Zposition Zrotation Xrotation Yrotation
          JOINT Toes_L
          {
            OFFSET 11.7543 0 0
            CHANNELS 6 Xposition Yposition Zposition Zrotation Xrotation Yrotation
            End Site
            {
              OFFSET 0 0 0
            }
          }
        }
      }
    }
    JOINT UpperLeg_R
    {
      OFFSET -2.19251 6.46944 0
      CHANNELS 6 Xposition Yposition Zposition Zrotation Xrotation Yrotation
      JOINT LowerLeg_R
      {
        OFFSET -39.0811 -0.00228153 -0.0401928
        CHANNELS 6 Xposition Yposition Zposition Zrotation Xrotation Yrotation
        JOINT Foot_R
        {
          OFFSET -40.9854 0 0
          CHANNELS 6 Xposition Yposition Zposition Zrotation Xrotation Yrotation
          JOINT Toes_R
          {
            OFFSET -11.7543 0 0
            CHANNELS 6 Xposition Yposition Zposition Zrotation Xrotation Yrotation
            End Site
            {
              OFFSET 0 0 0
            }
          }
        }
      }
    }
  }
}
MOTION
Frames:	5
Frame Time:	0.0333333
0 0 0 0 0 -0 -4.92347 89.7582 -11.8922 89.9727 0.58665 0.718119 15.7357 5.1072e-06 -5.51765e-07 73.6723 85.6518 -74.6081 8.98455 -0.406207 -4.3199e-07 0.561735 -2.3852 -1.85872 16.3773 -1.3905e-06 -6.99897e-07 0.805717 -3.25348 2.3888 6.45672 -1.25837e-06 -1.02172e-07 -6.9938 -1.97293 2.12065 12.9942 -0.242716 4.98039 -87.1452 -8.68804 -86.7306 5.34809 -7.22636e-06 -6.2814e-07 -122.092 -49.3036 -112.882 24.3286 1.87007e-05 4.90208e-06 -60.0313 5.9991 -93.4568 22.2916 -9.88446e-07 4.63217e-06 72.7751 5.67421 -19.6749 12.9945 -0.242716 -4.98039 90.914 -3.46265 -90.2027 -5.34813 -1.25947e-06 -3.79883e-06 -128.242 -44.5461 -127.747 -24.3289 0.000322201 -8.65921e-06 -28.0207 -7.45083 -76.3148 -22.2915 -0.000108084 -4.47941e-06 65.3011 4.9842 7.58497 -2.19248 -6.46944 -1.22534e-07 -172.375 -5.70782 -12.7449 39.0811 -6.73843e-06 -1.23785e-05 0.0627566 -0.0612211 37.4951 40.9854 -6.48686e-06 -1.26872e-05 -4.08016 -0.492476 -68.78 11.7543 -2.30145e-07 3.05095e-06 -0.699599 -0.97697 -19.2462 -2.19251 6.46944 -1.45247e-06 174.746 10.1343 167.052 -39.0811 -0.00228153 -0.0401928 0.0977918 -0.103576 36.9448 -40.9854 7.72618e-06 5.99936e-06 -1.67318 -0.776273 -70.663 -11.7543 -5.6619e-06 -5.58687e-06 -1.25862 -1.46704 -17.6604 
0 0 0 0 0 -0 -5.10763 90.5766 -11.8997 90.228 1.318 1.88858 15.7357 5.1072e-06 -5.51765e-07 73.4052 85.1549 -74.5234 8.98455 -0.406207 -4.3199e-07 1.49696 -2.70494 -2.19948 16.3773 -1.3905e-06 -6.99897e-07 1.04862 -3.1125 2.11529 6.45672 -1.25837e-06 -1.02172e-07 -5.41492 -1.81657 2.82177 12.9942 -0.242716 4.98039 -86.5877 -9.9897 -86.0303 5.34809 -7.22636e-06 -6.2814e-07 -98.6971 -53.2742 -87.8899 24.3286 1.87007e-05 4.90208e-06 -35.4201 5.25679 -97.3287 22.2916 -9.88446e-07 4.63217e-06 76.3813 5.66163 -16.3955 12.9945 -0.242716 -4.98039 90.911 -3.45063 -90.2005 -5.34813 -1.25947e-06 -3.79883e-06 -111.401 -54.7918 -108.815 -24.3289 0.000322201 -8.65921e-06 -12.5557 -2.18124 -80.3471 -22.2915 -0.000108084 -4.47941e-06 63.4538 4.98108 7.71017 -2.19248 -6.46944 -1.22534e-07 -172.458 -4.33779 -13.5318 39.0811 -6.73843e-06 -1.23785e-05 0.0890789 -0.0893245 39.3477 40.9854 -6.48686e-06 -1.26872e-05 -4.70819 -0.844351 -63.6063 11.7543 -2.30145e-07 3.05095e-06 0.171483 -0.291784 -21.6641 -2.19251 6.46944 -1.45247e-06 174.354 10.7453 168.714 -39.0811 -0.00228153 -0.0401928 0.0808275 -0.0857155 35.4482 -40.9854 7.72618e-06 5.99936e-06 -1.39178 -0.770919 -66.6973 -11.7543 -5.6619e-06 -5.58687e-06 -1.57432 -2.06446 -20.4037 
0 0 0 0 0 -0 -5.21272 91.4194 -12.0453 90.6248 1.22553 2.00119 15.7357 5.1072e-06 -5.51765e-07 76.1687 85.0882 -77.5131 8.98455 -0.406207 -4.3199e-07 1.74892 -2.27653 -2.65174 16.3773 -1.3905e-06 -6.99897e-07 0.481123 -3.12226 1.90289 6.45672 -1.25837e-06 -1.02172e-07 -3.80375 -2.29886 2.98166 12.9942 -0.242716 4.98039 -86.5271 -9.40423 -84.6238 5.34809 -7.22636e-06 -6.2814e-07 -51.1732 -49.9424 -50.5539 24.3286 1.87007e-05 4.90208e-06 -15.2259 1.60603 -95.8564 22.2916 -9.88446e-07 4.63217e-06 56.2039 5.68106 -14.2857 12.9945 -0.242716 -4.98039 90.7432 -2.84609 -90.3571 -5.34813 -1.25947e-06 -3.79883e-06 -60.095 -61.8593 -61.6832 -24.3289 0.000322201 -8.65921e-06 2.76334 0.277639 -84.1495 -22.2915 -0.000108084 -4.47941e-06 58.0256 5.03753 6.47329 -2.19248 -6.46944 -1.22534e-07 -172.63 -6.22028 -15.4269 39.0811 -6.73843e-06 -1.23785e-05 0.133966 -0.137301 41.1441 40.9854 -6.48686e-06 -1.26872e-05 -4.54937 0.631568 -57.8799 11.7543 -2.30145e-07 3.05095e-06 0.253154 -0.455371 -24.4113 -2.19251 6.46944 -1.45247e-06 173.72 13.5301 170.504 -39.0811 -0.00228153 -0.0401928 0.0695691 -0.0811912 31.9023 -40.9854 7.72618e-06 5.99936e-06 -0.548958 1.84968 -64.3411 -11.7543 -5.6619e-06 -5.58687e-06 -1.56849 -2.09016 -20.8191 
0 0 0 0 0 -0 -5.29001 91.7576 -12.1288 90.7323 0.174033 1.36188 15.7357 5.1072e-06 -5.51765e-07 80.2126 85.325 -81.6414 8.98455 -0.406207 -4.3199e-07 1.43126 -1.5097 -2.83641 16.3773 -1.3905e-06 -6.99897e-07 0.153743 -2.95095 1.73794 6.45672 -1.25837e-06 -1.02172e-07 -3.3435 -2.5865 3.00757 12.9942 -0.242716 4.98039 -86.3954 -9.22062 -83.5371 5.34809 -7.22636e-06 -6.2814e-07 -17.5862 -37.8745 -28.9691 24.3286 1.87007e-05 4.90208e-06 25.1917 -2.31742 -94.9212 22.2916 -9.88446e-07 4.63217e-06 40.1186 5.54043 -7.77927 12.9945 -0.242716 -4.98039 90.8216 -3.04361 -89.8845 -5.34813 -1.25947e-06 -3.79883e-06 -15.7421 -47.1051 -23.9913 -24.3289 0.000322201 -8.65921e-06 14.4433 0.111078 -89.5162 -22.2915 -0.000108084 -4.47941e-06 48.4649 5.12514 4.46405 -2.19248 -6.46944 -1.22534e-07 -172.602 -8.67082 -16.6818 39.0811 -6.73843e-06 -1.23785e-05 0.162801 -0.167665 41.8656 40.9854 -6.48686e-06 -1.26872e-05 -4.92979 1.68405 -55.8762 11.7543 -2.30145e-07 3.05095e-06 0.246299 -0.440863 -24.1703 -2.19251 6.46944 -1.45247e-06 173.578 15.6065 171.59 -39.0811 -0.00228153 -0.0401928 0.0640503 -0.0831128 28.6399 -40.9854 7.72618e-06 5.99936e-06 0.131793 4.58766 -64.7396 -11.7543 -5.6619e-06 -5.58687e-06 -1.43783 -1.80753 -18.9283 
0 0 0 0 0 -0 -5.28541 91.6166 -12.1045 90.0826 -1.32708 1.10129 15.7357 5.1072e-06 -5.51765e-07 83.4913 85.2142 -84.7567 8.98455 -0.406207 -4.3199e-07 1.73425 -1.0178 -2.51308 16.3773 -1.3905e-06 -6.99897e-07 -0.461131 -2.83347 2.16282 6.45672 -1.25837e-06 -1.02172e-07 -3.97438 -2.40225 2.84451 12.9942 -0.242716 4.98039 -86.3897 -9.38239 -83.8419 5.34809 -7.22636e-06 -6.2814e-07 -3.76528 -35.5697 -17.8894 24.3286 1.87007e-05 4.90208e-06 55.0808 -2.34201 -91.6337 22.2916 -9.88446e-07 4.63217e-06 69.6933 5.68265 -24.6979 12.9945 -0.242716 -4.98039 91.142 -4.1977 -89.7652 -5.34813 -1.25947e-06 -3.79883e-06 -1.21866 -32.5046 -13.6138 -24.3289 0.000322201 -8.65921e-06 44.414 -3.06427 -93.1115 -22.2915 -0.000108084 -4.47941e-06 45.6662 5.41362 -2.52792 -2.19248 -6.46944 -1.22534e-07 -171.958 -10.4766 -16.0564 39.0811 -6.73843e-06 -1.23785e-05 0.155246 -0.160853 41.4091 40.9854 -6.48686e-06 -1.26872e-05 -4.72213 1.62857 -58.1424 11.7543 -2.30145e-07 3.05095e-06 0.182221 -0.312174 -22.0103 -2.19251 6.46944 -1.45247e-06 174.22 15.2893 172.046 -39.0811 -0.00228153 -0.0401928 0.0544736 -0.0698028 27.2861 -40.9854 7.72618e-06 5.99936e-06 -0.135513 5.6964 -65.983 -11.7543 -5.6619e-06 -5.58687e-06 -1.08117 -1.23677 -17.3691 
